<?xml version="1.0" standalone="no"?>
<!DOCTYPE svg PUBLIC "-//W3C//DTD SVG 20010904//EN"
 "http://www.w3.org/TR/2001/REC-SVG-20010904/DTD/svg10.dtd">
<svg version="1.0" xmlns="http://www.w3.org/2000/svg"
 width="2000.000000pt" height="1500.000000pt" viewBox="0 0 2000.000000 1500.000000"
 preserveAspectRatio="xMidYMid meet">

<g transform="translate(0.000000,1500.000000) scale(0.100000,-0.100000)"
fill="#000000" stroke="none">
<path d="M0 7500 l0 -7500 10000 0 10000 0 0 7500 0 7500 -10000 0 -10000 0 0
-7500z m3710 5 l0 -2175 -595 0 -595 0 0 2175 0 2175 595 0 595 0 0 -2175z
m1450 0 l0 -2175 -595 0 -595 0 0 2175 0 2175 595 0 595 0 0 -2175z m1450 0
l0 -2175 -595 0 -595 0 0 2175 0 2175 595 0 595 0 0 -2175z m2598 1515 c167
-21 256 -78 287 -184 14 -47 16 -104 13 -363 -3 -298 -4 -309 -26 -351 -28
-53 -236 -229 -308 -259 -76 -33 -182 -46 -324 -40 -178 7 -284 49 -345 137
-48 69 -55 121 -55 402 0 272 7 337 43 385 22 29 183 169 242 209 91 63 279
88 473 64z m-1538 -30 c19 -19 20 -33 20 -211 l0 -191 45 36 c25 21 61 40 80
43 l35 6 0 76 c0 42 4 81 8 86 4 6 51 48 105 93 l98 82 128 0 c94 0 132 -4
147 -14 18 -14 19 -29 19 -353 l0 -338 -49 -135 c-27 -74 -56 -144 -65 -154
-9 -10 -58 -54 -109 -97 l-93 -79 -117 0 c-140 0 -154 6 -177 85 -15 52 -27
66 -40 46 -3 -5 -39 -37 -81 -70 l-75 -61 -118 0 c-101 0 -120 3 -138 19 -11
10 -42 79 -69 152 l-48 134 -4 324 c-2 179 -1 334 2 346 3 12 42 53 88 91 130
110 116 104 261 104 114 0 129 -2 147 -20z m2446 6 c18 -14 19 -32 24 -309 l5
-295 93 79 93 79 129 0 c104 0 132 -3 144 -16 14 -13 16 -51 16 -263 0 -183
-3 -251 -12 -263 -7 -8 -55 -50 -106 -92 l-93 -76 -379 0 c-331 0 -381 2 -394
16 -14 14 -16 72 -16 494 l0 479 98 84 c53 46 104 86 112 90 8 3 72 6 141 6
93 1 130 -3 145 -13z m1474 -10 c77 -25 142 -92 165 -168 14 -48 16 -100 13
-340 l-3 -283 -28 -56 c-23 -47 -47 -73 -140 -150 -61 -51 -137 -104 -167
-118 l-55 -26 -316 -3 -317 -3 -16 22 c-14 21 -16 78 -16 492 l0 469 38 35
c20 19 70 62 111 95 l74 60 301 -4 c254 -4 310 -7 356 -22z m1150 -8 c97 -47
125 -116 119 -282 -3 -68 -8 -90 -26 -114 l-22 -30 37 -20 c20 -10 51 -38 67
-61 l30 -43 3 -201 c1 -111 -1 -207 -5 -212 -5 -6 -52 -48 -106 -93 l-98 -82
-139 0 c-177 0 -170 -7 -170 177 0 73 -2 133 -4 133 -2 0 -11 3 -20 6 -14 5
-16 -4 -16 -68 l0 -74 -47 -39 c-26 -22 -74 -61 -106 -87 l-60 -48 -129 0
c-71 0 -138 5 -149 10 -18 10 -19 26 -19 495 l0 484 98 84 c53 46 104 87 112
90 8 4 146 5 305 4 l290 -2 55 -27z m1218 16 c21 -14 22 -23 22 -129 l0 -113
-65 -57 c-54 -48 -63 -60 -55 -75 6 -10 10 -64 10 -118 l0 -100 -67 -61 -68
-61 100 0 c144 0 145 -1 145 -144 l0 -112 -37 -35 c-21 -20 -69 -61 -106 -92
l-68 -57 -349 0 c-304 0 -351 2 -364 16 -14 14 -16 72 -16 494 l0 479 98 84
c53 46 104 86 112 90 8 3 166 6 350 6 288 1 339 -1 358 -15z m956 -6 c17 -16
48 -83 97 -213 109 -289 101 -255 106 -498 3 -120 2 -228 -1 -242 -3 -13 -49
-59 -108 -109 l-103 -86 -134 0 c-174 0 -171 -3 -171 137 0 96 -1 103 -20 103
-15 0 -20 -7 -20 -27 0 -38 -1 -39 -114 -132 l-98 -81 -133 0 c-103 0 -135 3
-145 14 -8 11 -11 82 -8 268 l3 253 85 224 85 224 89 76 c140 120 110 111 353
111 206 0 213 -1 237 -22z m805 9 c13 -7 45 -51 73 -102 27 -49 51 -91 53 -93
1 -2 23 16 47 40 23 24 78 71 121 106 l78 62 132 0 c104 0 137 -3 155 -16 l22
-15 0 -478 c0 -367 -3 -481 -12 -493 -7 -8 -55 -50 -106 -92 l-93 -76 -137 0
c-94 0 -142 4 -150 12 -9 9 -12 69 -12 210 0 182 -5 220 -25 187 -14 -22 -89
-69 -112 -69 -22 0 -23 -3 -23 -73 0 -47 -5 -80 -14 -93 -8 -11 -57 -55 -109
-97 l-95 -77 -130 0 c-105 0 -134 3 -146 16 -14 14 -16 72 -16 494 l0 480 91
77 c50 43 101 83 113 90 29 17 263 17 295 0z m1717 -1 c16 -12 20 -29 23 -111
6 -189 12 -176 -174 -402 l-163 -198 161 -3 c206 -3 197 3 197 -147 l0 -111
-37 -35 c-21 -20 -69 -61 -106 -92 l-68 -57 -374 0 -374 0 -15 22 c-21 30 -22
224 -2 271 7 18 86 120 174 227 l161 195 -143 5 c-100 4 -148 9 -159 19 -14
11 -17 34 -17 132 l0 118 98 84 c53 46 104 86 112 90 8 3 166 6 351 6 274 1
339 -2 355 -13z m-9397 -1300 c8 -9 11 -53 9 -132 l-3 -118 -87 -75 -88 -75 0
-153 0 -153 68 0 c107 0 112 -6 112 -150 l0 -119 -104 -85 -104 -86 -325 0
c-283 0 -328 2 -341 16 -13 12 -16 39 -16 126 0 125 -10 108 123 218 l67 55 0
153 0 152 -75 0 c-108 0 -115 9 -114 143 0 56 3 109 7 118 4 9 50 53 102 97
l95 81 331 1 c271 0 334 -3 343 -14z m622 -58 c63 -67 69 -71 86 -57 10 9 49
41 86 72 l68 57 137 0 c75 0 144 -5 152 -10 13 -8 15 -74 18 -472 1 -255 0
-473 -3 -485 -3 -12 -51 -61 -107 -108 l-102 -85 -136 0 c-92 0 -140 4 -148
12 -8 8 -12 47 -12 108 0 65 -4 102 -13 115 -13 16 -15 14 -21 -23 -6 -37 -16
-50 -108 -127 l-102 -86 -140 3 c-139 3 -141 3 -153 28 -16 31 -19 903 -4 943
6 14 53 62 106 106 l96 81 117 0 116 0 67 -72z m1567 60 c8 -8 12 -52 12 -130
l0 -118 -91 -77 c-50 -43 -101 -83 -113 -90 -12 -7 -60 -12 -113 -13 l-93 0 0
-124 c0 -100 3 -128 16 -140 13 -13 44 -16 182 -16 221 0 212 7 212 -150 l0
-118 -102 -86 -103 -86 -224 0 c-284 0 -320 8 -402 90 -90 89 -94 110 -94 440
l0 275 28 57 c23 47 48 74 135 146 127 106 148 120 204 137 58 18 528 21 546
3z m-2100 -1516 c3 -16 -2 -22 -17 -22 -26 0 -36 17 -20 36 16 19 33 13 37
-14z m672 13 c15 -18 5 -35 -21 -35 -12 0 -19 7 -19 18 0 33 20 42 40 17z
m408 -13 c3 -16 -2 -22 -17 -22 -26 0 -36 17 -20 36 16 19 33 13 37 -14z
m-328 -101 c0 -63 4 -112 10 -116 17 -10 11 -35 -8 -35 -36 0 -42 20 -42 142
0 111 1 118 20 118 19 0 20 -7 20 -109z m180 -21 c0 -123 -1 -130 -20 -130
-11 0 -20 5 -20 11 0 8 -4 8 -14 -1 -41 -33 -86 12 -86 86 0 57 32 98 71 90
28 -5 29 -4 29 34 0 33 3 40 20 40 19 0 20 -7 20 -130z m-1776 87 c29 -29 40
-85 26 -135 -14 -54 -39 -73 -97 -75 l-48 -2 -3 118 -3 117 51 0 c40 0 56 -5
74 -23z m1256 3 c24 -24 25 -47 4 -71 -14 -16 -14 -19 5 -38 51 -51 0 -111
-95 -111 l-34 0 0 120 0 120 50 0 c37 0 55 -5 70 -20z m-320 -10 c0 -11 7 -20
15 -20 8 0 15 -7 15 -15 0 -8 -7 -15 -15 -15 -12 0 -15 -14 -15 -66 0 -53 3
-65 14 -61 15 6 30 -16 19 -27 -12 -12 -52 -6 -67 10 -11 11 -16 35 -16 80 0
36 -4 64 -10 64 -5 0 -10 7 -10 15 0 8 5 15 10 15 6 0 10 9 10 20 0 15 7 20
25 20 18 0 25 -5 25 -20z m1070 0 c0 -13 7 -20 20 -20 26 0 26 -26 -1 -33 -18
-5 -20 -12 -17 -64 2 -44 7 -58 18 -58 17 0 31 -15 24 -27 -3 -4 -18 -8 -34
-8 -38 0 -50 23 -50 99 0 34 -4 61 -10 61 -5 0 -10 7 -10 15 0 8 5 15 10 15 6
0 10 9 10 20 0 13 7 20 20 20 13 0 20 -7 20 -20z m-1903 -31 c8 -8 13 -8 17 0
12 18 36 12 36 -9 0 -11 -7 -20 -15 -20 -22 0 -35 -34 -35 -94 0 -49 -2 -56
-20 -56 -19 0 -20 7 -20 95 0 96 8 113 37 84z m183 -9 c12 -12 20 -33 20 -55
0 -35 0 -35 -45 -35 -32 0 -45 -4 -45 -14 0 -23 26 -37 54 -30 20 5 26 2 26
-10 0 -20 -45 -32 -79 -20 -36 13 -55 72 -41 125 16 59 70 79 110 39z m154 -2
c15 -24 25 -152 12 -165 -3 -4 -11 -2 -18 5 -8 8 -17 8 -30 1 -27 -15 -65 -3
-73 22 -13 40 3 67 45 80 22 7 40 15 40 18 -1 20 -21 33 -43 29 -27 -5 -46 16
-24 26 33 13 77 5 91 -16z m91 12 c4 -6 13 -5 25 3 16 9 24 9 40 -1 16 -10 24
-10 40 0 15 10 25 10 38 2 14 -9 18 -28 20 -98 3 -81 2 -86 -18 -86 -18 0 -20
6 -20 73 0 79 -5 93 -27 76 -8 -8 -13 -35 -13 -80 0 -62 -2 -69 -20 -69 -18 0
-20 7 -20 73 0 79 -5 93 -27 76 -8 -8 -13 -35 -13 -80 0 -62 -2 -69 -20 -69
-19 0 -20 7 -20 95 0 76 3 95 14 95 8 0 18 -4 21 -10z m315 -85 c0 -88 -1 -95
-20 -95 -19 0 -20 7 -20 95 0 88 1 95 20 95 19 0 20 -7 20 -95z m508 12 c2
-42 6 -77 10 -77 22 0 32 30 32 92 0 61 2 68 20 68 19 0 20 -7 20 -95 0 -76
-3 -95 -14 -95 -8 0 -18 5 -21 10 -5 8 -11 7 -21 -1 -20 -17 -61 -3 -68 23 -8
32 -8 143 1 152 4 4 14 5 23 4 12 -3 16 -20 18 -81z m162 -12 c0 -88 -1 -95
-20 -95 -19 0 -20 7 -20 95 0 88 1 95 20 95 19 0 20 -7 20 -95z m410 0 c0 -88
-1 -95 -20 -95 -19 0 -20 7 -20 95 0 88 1 95 20 95 19 0 20 -7 20 -95z m-892
-68 c4 -20 -25 -34 -40 -19 -15 15 -1 44 19 40 10 -2 19 -11 21 -21z m1080 0
c4 -20 -25 -34 -40 -19 -15 15 -1 44 19 40 10 -2 19 -11 21 -21z"/>
<path d="M8880 9000 c-75 -16 -168 -67 -195 -108 -41 -62 -47 -119 -43 -424 4
-315 8 -340 73 -397 78 -68 272 -103 459 -83 169 18 260 64 300 151 19 43 21
66 24 322 5 362 -6 418 -94 478 -77 53 -128 64 -309 67 -93 2 -190 -1 -215 -6z
m344 -132 c52 -16 101 -64 115 -113 14 -53 14 -457 0 -510 -27 -98 -123 -140
-300 -133 -135 6 -190 29 -226 97 -22 43 -23 53 -23 283 0 192 3 246 15 275
30 70 70 98 163 113 67 10 201 4 256 -12z"/>
<path d="M8922 8856 c-50 -16 -77 -38 -101 -81 -14 -26 -16 -67 -16 -280 0
-232 1 -252 20 -283 28 -47 70 -69 152 -83 146 -24 283 9 330 80 22 33 23 41
23 285 0 288 -3 302 -81 346 -39 21 -58 25 -164 27 -83 2 -133 -2 -163 -11z
m234 -123 c28 -11 34 -52 34 -244 0 -188 0 -190 -25 -214 -21 -22 -33 -25 -93
-25 -54 0 -75 4 -93 19 -24 19 -24 21 -24 230 0 146 4 214 12 222 25 25 135
33 189 12z"/>
<path d="M8970 8431 c0 -82 4 -142 10 -146 6 -4 10 43 10 134 0 82 -4 142 -10
146 -6 4 -10 -43 -10 -134z"/>
<path d="M7370 8971 c-13 -26 -13 -564 0 -648 14 -84 87 -284 112 -305 17 -15
40 -18 127 -18 71 0 113 4 125 13 10 8 32 64 55 142 31 111 40 130 58 133 28
4 34 -8 72 -143 40 -144 42 -145 182 -145 132 0 127 -3 181 142 58 159 59 172
56 523 l-3 320 -145 0 -145 0 -5 -270 -5 -269 -39 84 c-55 119 -56 120 -136
120 -37 0 -73 -5 -83 -12 -9 -7 -36 -53 -59 -103 l-43 -90 -5 270 -5 270 -142
3 c-132 2 -143 1 -153 -17z m161 -378 c1 -250 3 -287 22 -363 21 -83 23 -85
52 -85 29 0 34 7 111 158 44 87 87 163 95 168 23 14 76 10 94 -7 9 -9 50 -84
91 -166 41 -82 82 -152 91 -155 30 -12 48 13 70 98 19 75 21 112 22 357 1 190
4 272 12 272 8 0 10 -79 6 -272 -4 -229 -8 -286 -25 -356 -24 -98 -35 -114
-76 -110 -29 3 -36 12 -115 166 l-83 163 -46 -3 -46 -3 -81 -160 -80 -160 -37
-3 c-46 -4 -49 1 -78 140 -17 83 -20 135 -20 348 0 160 4 250 10 250 6 0 10
-100 11 -277z"/>
<path d="M9816 8974 c-3 -8 -6 -227 -6 -484 0 -454 1 -470 19 -480 13 -6 152
-10 385 -10 318 0 367 2 380 16 14 13 16 50 16 252 0 132 -5 244 -10 252 -7
12 -35 15 -140 15 -105 0 -133 -3 -140 -15 -5 -8 -10 -70 -10 -137 l0 -123
-95 0 -95 0 -2 363 -3 362 -146 3 c-127 2 -147 0 -153 -14z m394 -834 l240 0
0 135 c0 83 4 135 10 135 6 0 10 -53 10 -140 l0 -140 -255 0 -255 0 2 373 3
372 2 -367 3 -368 240 0z"/>
<path d="M10910 8971 c-6 -13 -10 -180 -10 -473 0 -402 2 -456 16 -477 l16
-23 302 4 c252 4 308 7 346 22 79 30 116 61 147 123 l28 58 0 290 c0 335 -4
356 -81 423 -74 66 -114 72 -457 72 -283 0 -297 -1 -307 -19z m617 -129 c76
-40 78 -51 78 -349 0 -298 0 -297 -85 -340 -42 -22 -56 -23 -257 -23 l-213 0
0 371 0 370 218 -3 c203 -3 220 -4 259 -26z"/>
<path d="M11070 8500 l0 -362 208 4 c220 3 241 8 287 58 19 21 20 38 23 281 3
302 1 313 -76 351 -43 21 -63 23 -244 26 l-198 4 0 -362z m356 216 c18 -13 19
-28 19 -216 0 -200 0 -202 -24 -221 -19 -16 -39 -19 -112 -19 l-89 0 0 235 0
235 93 0 c65 0 99 -4 113 -14z"/>
<path d="M11230 8421 c0 -87 4 -141 10 -141 6 0 10 51 10 134 0 79 -4 137 -10
141 -6 4 -10 -43 -10 -134z"/>
<path d="M12076 8974 c-3 -9 -6 -227 -6 -484 0 -454 1 -470 19 -480 11 -5 74
-10 140 -10 95 0 123 3 135 16 13 13 16 42 16 160 l0 144 109 0 c75 0 112 -4
119 -13 6 -6 12 -72 14 -145 4 -168 -2 -162 164 -162 98 0 126 3 138 16 23 22
23 327 1 402 -17 56 -67 106 -118 118 l-29 6 27 28 c45 47 60 177 30 277 -18
60 -74 116 -132 132 -23 7 -155 11 -329 11 -257 0 -293 -2 -298 -16z m534
-122 c23 -11 43 -33 58 -62 21 -41 23 -55 19 -153 -3 -88 -7 -112 -23 -134
-31 -42 -48 -39 -19 2 23 35 25 46 25 149 0 92 -3 116 -20 143 -32 53 -49 57
-242 61 l-178 4 0 -202 0 -201 208 2 c126 1 223 -3 248 -10 48 -13 81 -45 94
-92 13 -45 13 -229 0 -229 -6 0 -10 47 -10 120 0 117 -1 120 -28 151 -37 42
-77 48 -314 49 l-198 0 -3 -162 c-1 -90 -4 5 -5 210 l-2 372 178 0 c148 0 183
-3 212 -18z m-92 -118 c18 -13 22 -25 22 -74 0 -78 -13 -90 -96 -90 l-64 0 0
90 0 90 58 0 c36 0 66 -6 80 -16z"/>
<path d="M13236 8974 c-3 -9 -6 -227 -6 -484 0 -454 1 -470 19 -480 13 -6 143
-10 355 -10 291 0 337 2 350 16 12 12 16 37 16 110 0 144 16 134 -225 134
l-205 0 0 60 0 60 143 0 c78 0 149 5 157 10 23 14 28 182 6 215 -16 25 -18 25
-161 25 l-145 0 0 50 0 50 193 0 c246 0 237 -5 237 126 0 53 -5 104 -10 115
-10 18 -25 19 -364 19 -313 0 -355 -2 -360 -16z m384 -114 l-225 -5 -3 -172
-2 -173 172 -2 173 -2 -170 -6 -170 -5 -3 -177 -2 -178 227 -3 228 -2 -232 -3
-233 -2 0 370 0 370 233 -2 232 -2 -225 -6z"/>
<path d="M14437 8973 c-16 -18 -142 -345 -171 -442 -13 -43 -16 -103 -16 -282
0 -215 1 -229 19 -239 11 -5 71 -10 135 -10 149 0 146 -3 146 141 l0 109 120
0 120 0 0 -109 c0 -141 0 -141 158 -141 62 0 122 5 133 10 18 10 19 23 19 233
0 167 -4 237 -15 281 -22 83 -154 428 -173 449 -14 15 -38 17 -237 17 -199 0
-224 -2 -238 -17z m355 -123 c17 -13 49 -75 94 -182 l68 -163 4 -187 c3 -133
1 -188 -7 -188 -7 0 -11 38 -11 115 l0 115 -265 0 -265 0 0 -115 c0 -77 -4
-115 -11 -115 -8 0 -10 54 -7 188 l4 187 53 135 c64 162 85 206 108 219 10 6
61 11 114 11 81 0 100 -3 121 -20z"/>
<path d="M14573 8850 c-27 -11 -40 -36 -104 -198 -39 -97 -52 -144 -56 -199
l-6 -73 268 0 268 0 -5 73 c-5 59 -16 96 -65 210 -85 196 -81 191 -189 194
-49 2 -99 -2 -111 -7z m132 -130 c3 -5 21 -57 39 -115 l34 -105 -108 0 -108 0
33 104 c18 57 36 109 39 115 9 14 63 15 71 1z"/>
<path d="M15422 8978 c-9 -9 -12 -130 -12 -485 0 -457 1 -473 19 -483 29 -15
243 -13 264 3 15 11 17 42 19 267 l3 255 46 -85 c26 -47 57 -91 70 -98 29 -16
121 -11 144 8 8 7 34 49 58 94 l42 81 3 -255 c2 -225 4 -256 19 -267 27 -20
257 -18 277 3 14 14 16 71 16 483 0 350 -3 470 -12 479 -8 8 -57 12 -153 12
-123 0 -144 -2 -157 -17 -8 -10 -43 -70 -77 -133 -35 -63 -69 -121 -76 -129
-21 -21 -37 -3 -97 108 -28 53 -62 113 -75 134 l-23 37 -143 0 c-98 0 -147 -4
-155 -12z m324 -268 c58 -88 114 -165 125 -170 11 -6 29 -8 40 -5 11 4 68 79
130 171 l110 165 37 -3 37 -3 0 -370 0 -370 -2 362 -3 363 -26 6 c-14 4 -30 2
-35 -3 -5 -5 -58 -81 -117 -169 l-107 -159 -40 0 -40 0 -107 160 c-59 87 -115
163 -123 168 -9 4 -23 7 -33 5 -16 -3 -17 -34 -22 -368 l-5 -365 -3 366 c-1
201 1 369 5 372 3 4 21 7 40 7 32 0 38 -6 139 -160z"/>
<path d="M16716 8974 c-12 -32 -7 -221 7 -233 8 -6 75 -12 171 -13 l157 -3
-180 -219 c-202 -245 -198 -236 -189 -402 3 -60 7 -79 23 -90 15 -11 85 -14
376 -14 l358 0 15 22 c12 16 16 47 16 115 0 135 3 133 -205 133 -91 0 -165 2
-165 5 0 3 71 91 158 196 86 105 163 201 170 215 9 17 12 64 10 161 l-3 138
-356 3 c-319 2 -357 1 -363 -14z m575 -131 c5 -15 8 -36 5 -48 -3 -11 -105
-148 -226 -304 -194 -248 -221 -287 -218 -315 l3 -31 245 -5 245 -6 -250 1
-250 0 -3 41 c-3 40 4 50 217 325 184 236 221 289 221 317 0 17 -1 33 -2 34
-2 1 -104 5 -228 8 l-225 6 228 2 227 2 11 -27z"/>
<path d="M7360 7681 c-15 -28 -13 -203 3 -224 9 -12 31 -17 92 -19 l80 -3 3
-232 2 -233 -84 0 c-105 0 -106 -2 -106 -134 0 -73 4 -98 16 -110 13 -14 58
-16 333 -16 233 0 320 3 329 12 16 16 16 220 0 236 -7 7 -43 12 -90 12 l-78 0
0 235 0 235 78 0 c47 0 83 5 90 12 8 8 12 49 12 118 0 69 -4 110 -12 118 -9 9
-97 12 -335 12 -308 0 -323 -1 -333 -19z m550 -111 c0 -6 -42 -10 -105 -10
l-105 0 0 -355 0 -355 105 0 c63 0 105 -4 105 -10 0 -6 -78 -10 -215 -10 -137
0 -215 4 -215 10 0 6 42 10 105 10 l105 0 0 355 0 355 -105 0 c-63 0 -105 4
-105 10 0 6 78 10 215 10 137 0 215 -4 215 -10z"/>
<path d="M8363 7693 c-18 -7 -19 -953 -1 -971 18 -18 262 -17 277 1 7 9 12 96
13 251 l3 237 117 -143 118 -143 0 -95 c0 -61 4 -100 12 -108 8 -8 53 -12 138
-12 85 0 130 4 138 12 17 17 17 949 0 966 -18 18 -262 17 -277 -1 -6 -8 -12
-75 -13 -170 l-3 -156 -140 160 c-77 88 -147 165 -157 170 -17 9 -203 11 -225
2z m407 -400 l255 -286 3 278 c1 166 6 283 12 289 7 7 10 -118 10 -362 0 -241
-4 -372 -10 -372 -6 0 -10 30 -10 70 l0 71 -256 287 c-141 158 -260 289 -265
290 -5 2 -10 -151 -11 -365 l-3 -368 -2 365 c-2 201 -1 371 2 377 2 7 8 13 13
13 4 0 122 -129 262 -287z"/>
<path d="M9700 7684 c-79 -21 -130 -59 -162 -123 l-28 -55 0 -300 c0 -296 1
-302 24 -352 26 -57 70 -95 137 -121 57 -22 520 -33 544 -13 19 16 22 219 3
238 -8 8 -60 12 -169 12 -152 0 -205 8 -221 33 -4 7 -8 98 -8 203 0 246 -17
228 214 232 98 2 176 8 184 14 16 14 17 219 0 236 -18 18 -446 15 -518 -4z
m400 -113 c0 -5 -77 -11 -173 -13 -263 -5 -257 4 -257 -353 0 -357 -6 -348
257 -353 114 -3 173 -7 173 -14 0 -8 -51 -9 -165 -6 -186 7 -225 18 -260 78
-19 33 -20 52 -20 295 0 230 2 264 18 292 22 41 52 61 108 72 60 12 319 13
319 2z"/>
<path d="M8974 6078 c-11 -18 -9 -97 4 -110 20 -20 42 10 42 56 0 53 -27 85
-46 54z"/>
<path d="M7210 6055 c0 -78 2 -85 20 -85 27 0 40 29 40 89 0 51 -17 81 -46 81
-11 0 -14 -18 -14 -85z"/>
<path d="M8470 6106 c0 -37 5 -42 28 -27 19 12 11 55 -10 59 -15 3 -18 -4 -18
-32z"/>
<path d="M8470 6005 c0 -32 3 -36 23 -33 17 2 22 10 22 33 0 23 -5 31 -22 33
-20 3 -23 -1 -23 -33z"/>
<path d="M7507 6084 c-4 -4 -7 -16 -7 -26 0 -13 7 -18 26 -18 21 0 25 4 22 22
-3 23 -27 35 -41 22z"/>
<path d="M7660 6005 c-15 -18 -6 -45 14 -45 14 0 26 21 26 46 0 18 -24 18 -40
-1z"/>
</g>
</svg>
