<?xml version="1.0" standalone="no"?>
<!DOCTYPE svg PUBLIC "-//W3C//DTD SVG 20010904//EN"
 "http://www.w3.org/TR/2001/REC-SVG-20010904/DTD/svg10.dtd">
<svg version="1.0" xmlns="http://www.w3.org/2000/svg"
 width="2000.000000pt" height="580.000000pt" viewBox="0 0 2000.000000 580.000000"
 preserveAspectRatio="xMidYMid meet">

<g transform="translate(0.000000,580.000000) scale(0.100000,-0.100000)"
fill="#000000" stroke="none">
<path d="M30 2900 l0 -2900 790 0 790 0 0 2900 0 2900 -790 0 -790 0 0 -2900z"/>
<path d="M1960 2900 l0 -2900 795 0 795 0 0 2900 0 2900 -795 0 -795 0 0
-2900z"/>
<path d="M3900 2900 l0 -2900 795 0 795 0 0 2900 0 2900 -795 0 -795 0 0
-2900z"/>
<path d="M8580 4923 c-169 -22 -236 -56 -421 -211 -177 -147 -201 -181 -219
-307 -13 -93 -13 -612 0 -712 20 -148 91 -248 217 -308 110 -52 161 -60 378
-60 219 0 289 12 392 64 58 29 298 225 350 286 65 76 68 102 68 550 0 351 -2
407 -17 456 -34 108 -124 180 -275 220 -62 17 -114 22 -258 24 -99 2 -196 1
-215 -2z m402 -28 c171 -30 272 -92 319 -197 l24 -53 0 -420 0 -420 -24 -53
c-48 -106 -149 -169 -321 -199 -113 -20 -417 -13 -505 11 -143 40 -229 105
-262 199 -16 47 -18 92 -18 467 l0 415 24 53 c46 103 148 167 312 197 102 18
346 18 451 0z"/>
<path d="M8590 4727 c-67 -16 -106 -36 -142 -74 -56 -59 -58 -73 -58 -431 l0
-328 26 -53 c52 -104 144 -136 375 -129 168 5 226 23 284 91 52 61 57 101 53
452 -3 299 -4 312 -25 352 -27 49 -72 86 -134 109 -59 22 -301 29 -379 11z
m380 -31 c55 -21 97 -59 121 -111 17 -36 19 -70 19 -360 0 -359 -2 -370 -73
-432 -55 -48 -130 -67 -272 -67 -145 0 -220 15 -275 55 -77 56 -80 68 -80 443
0 316 1 332 21 374 25 50 77 89 147 109 69 19 332 12 392 -11z"/>
<path d="M8660 4543 c-50 -20 -50 -17 -50 -315 0 -169 4 -287 10 -298 13 -24
69 -40 140 -40 71 0 127 16 140 40 6 11 10 129 10 298 0 338 9 316 -139 319
-53 1 -103 0 -111 -4z m-10 -242 c6 -12 10 -96 10 -202 0 -175 -1 -182 -17
-166 -16 15 -18 42 -21 202 -3 182 2 213 28 166z"/>
<path d="M6484 4878 c-55 -42 -219 -181 -236 -201 -17 -18 -18 -53 -18 -446 0
-248 5 -445 11 -471 20 -91 124 -362 148 -386 23 -23 28 -24 187 -24 l163 0
63 53 c156 130 168 139 173 125 2 -7 12 -40 21 -72 9 -33 27 -70 40 -83 22
-22 29 -23 187 -23 l164 0 129 107 c71 59 134 114 141 122 22 29 132 340 143
403 5 35 10 239 10 461 0 396 -2 428 -34 449 -6 4 -92 8 -191 8 l-180 0 -120
-101 c-66 -55 -128 -110 -137 -121 -15 -16 -18 -40 -18 -124 l0 -104 -29 0
c-44 0 -71 -13 -123 -59 -25 -23 -49 -41 -52 -41 -3 0 -6 114 -8 254 -3 233
-5 256 -22 275 -18 20 -29 21 -201 21 -172 0 -184 -1 -211 -22z m402 -12 c11
-16 14 -84 15 -365 l0 -346 58 121 c33 68 68 128 82 137 30 22 158 23 197 3
21 -11 41 -43 82 -135 l55 -121 5 345 c5 313 7 346 23 362 16 16 38 18 188 18
159 0 172 -1 185 -20 13 -17 15 -86 12 -465 l-3 -445 -44 -119 c-78 -213 -94
-250 -121 -263 -36 -18 -270 -17 -314 1 -37 15 -30 -2 -97 236 -37 130 -42
140 -75 140 -30 0 -33 -6 -84 -188 -24 -85 -51 -164 -61 -175 -16 -21 -26 -22
-173 -22 -153 0 -156 0 -179 25 -38 40 -137 328 -148 430 -14 135 -11 800 4
830 18 35 43 39 220 37 144 -2 160 -4 173 -21z"/>
<path d="M6682 4363 c4 -351 4 -360 32 -478 15 -66 35 -128 44 -137 15 -18 56
-23 87 -12 9 4 63 100 120 215 59 118 113 213 124 219 22 11 71 13 96 4 9 -4
61 -97 117 -208 55 -110 107 -209 116 -218 18 -21 71 -24 96 -5 12 9 27 54 47
138 l28 124 -1 360 -2 360 -6 -355 c-6 -338 -7 -361 -33 -474 -15 -66 -32
-125 -38 -133 -16 -19 -63 -16 -81 5 -9 9 -59 103 -112 209 -53 107 -105 198
-118 207 -12 9 -37 16 -55 16 -68 0 -77 -11 -191 -234 -103 -204 -108 -211
-139 -214 -44 -4 -56 18 -87 170 -25 122 -26 141 -26 463 0 231 -3 335 -11
335 -7 0 -9 -108 -7 -357z"/>
<path d="M9641 4793 c-71 -60 -134 -119 -140 -133 -8 -18 -11 -215 -9 -653 3
-609 4 -629 22 -643 17 -12 105 -14 527 -14 l507 0 109 89 c59 48 123 102 141
119 l32 30 0 331 c0 318 -1 332 -20 351 -18 18 -33 20 -194 20 -199 0 -163 14
-328 -127 -53 -46 -99 -83 -102 -83 -3 0 -6 176 -6 390 0 377 -1 391 -20 410
-19 19 -33 20 -205 20 l-185 0 -129 -107z m502 78 c15 -12 17 -59 17 -487 l0
-474 124 0 125 0 3 163 c2 121 7 168 17 180 12 15 38 17 186 17 134 0 175 -3
184 -14 8 -9 11 -108 9 -342 l-3 -328 -25 -13 c-38 -19 -990 -14 -1013 6 -16
12 -17 70 -17 646 0 494 3 635 13 643 22 18 50 21 208 19 115 -2 160 -6 172
-16z"/>
<path d="M9952 4228 l-2 -498 335 0 335 0 0 190 c0 120 -4 190 -10 190 -6 0
-10 -67 -10 -180 l0 -180 -320 0 -320 0 -3 488 -2 487 -3 -497z"/>
<path d="M11198 4873 c-96 -74 -227 -190 -237 -211 -8 -16 -11 -218 -11 -647
0 -612 0 -625 20 -645 19 -19 33 -20 411 -20 530 0 513 -5 764 207 114 96 144
128 167 173 45 89 50 141 46 533 -3 340 -5 365 -24 413 -45 111 -119 171 -249
204 -72 18 -111 20 -465 20 l-386 0 -36 -27z m876 -7 c135 -38 213 -105 246
-214 18 -59 20 -94 20 -427 0 -334 -2 -368 -20 -427 -34 -112 -114 -180 -250
-216 -42 -11 -146 -16 -433 -19 -336 -4 -380 -3 -402 11 l-25 16 0 634 c0 668
-1 647 45 659 11 3 187 4 390 3 306 -3 380 -7 429 -20z"/>
<path d="M11410 4225 l0 -496 283 3 282 3 57 28 c38 19 64 40 80 65 23 36 23
42 26 369 3 375 0 399 -57 453 -62 59 -86 63 -393 67 l-278 4 0 -496z m567
460 c65 -19 101 -48 124 -99 17 -37 19 -71 19 -366 0 -318 -1 -327 -22 -370
-17 -34 -35 -51 -73 -70 -49 -25 -53 -25 -327 -28 l-278 -3 0 475 0 476 253 0
c196 0 265 -3 304 -15z"/>
<path d="M11620 4220 l0 -310 119 0 c66 0 131 4 145 10 42 15 48 60 44 326 -4
306 10 284 -175 284 l-133 0 0 -310z m50 -117 c0 -147 -2 -173 -15 -173 -13 0
-15 28 -15 193 1 171 2 190 15 173 12 -16 15 -56 15 -193z"/>
<path d="M12650 4789 c-72 -61 -135 -122 -141 -136 -13 -35 -12 -1224 2 -1260
5 -15 16 -31 22 -35 7 -4 94 -8 194 -8 l182 0 118 96 c170 138 163 128 163
235 0 69 3 89 14 89 29 0 34 -28 38 -201 4 -236 -14 -219 227 -219 l186 0 135
113 135 113 0 274 c0 264 -1 277 -22 316 -25 47 -75 94 -121 113 l-32 13 19
27 c41 59 59 184 42 304 -22 157 -91 236 -229 266 -34 7 -188 11 -427 11
l-374 0 -131 -111z m856 91 c148 -16 217 -58 266 -165 20 -44 23 -66 23 -180
0 -115 -3 -135 -23 -172 -12 -24 -34 -50 -48 -59 l-25 -17 51 -17 c64 -22 124
-79 147 -139 15 -39 18 -81 18 -293 0 -189 -3 -250 -13 -260 -10 -10 -59 -13
-193 -13 -167 0 -182 1 -195 19 -11 15 -14 59 -14 193 0 226 11 213 -185 213
l-145 0 0 -199 c0 -172 -2 -200 -17 -212 -12 -11 -57 -14 -188 -14 -131 0
-176 3 -188 14 -16 12 -17 70 -17 646 0 667 -1 646 45 658 37 9 609 7 701 -3z"/>
<path d="M12962 4223 c2 -274 4 -402 5 -285 l3 212 301 0 c321 0 342 -3 385
-51 35 -40 44 -85 44 -230 0 -86 4 -139 10 -139 14 0 13 235 -1 300 -18 84
-93 140 -188 140 l-32 0 36 31 c48 43 57 85 53 254 -3 135 -4 143 -30 183 -50
74 -60 77 -340 80 l-248 3 2 -498z m501 463 c81 -34 114 -124 104 -289 -7
-118 -30 -177 -79 -204 -29 -16 -60 -18 -273 -18 l-240 0 -3 263 -2 262 230 0
c172 0 239 -3 263 -14z"/>
<path d="M13170 4435 l0 -115 88 0 c93 0 103 3 121 37 17 33 14 144 -5 171
-14 20 -23 22 -110 22 l-94 0 0 -115z"/>
<path d="M14298 4873 c-96 -74 -227 -190 -237 -211 -8 -16 -11 -218 -11 -647
0 -612 0 -625 20 -645 19 -19 33 -20 489 -20 l469 0 130 108 c72 59 136 119
142 133 8 18 10 75 8 164 -4 180 2 175 -192 175 l-141 1 55 47 c30 26 72 63
93 83 l37 37 0 134 c0 106 -3 138 -16 156 -9 13 -14 24 -13 26 56 38 164 137
170 154 5 13 9 80 9 148 0 120 -7 159 -34 176 -6 4 -221 8 -477 8 l-465 0 -36
-27z m978 -7 c22 -31 20 -283 -3 -308 -15 -17 -37 -18 -285 -18 l-268 0 0 -70
0 -70 188 0 c247 0 232 10 232 -165 0 -108 -3 -137 -16 -149 -13 -13 -46 -16
-210 -16 l-194 0 0 -80 0 -80 267 0 c234 0 269 -2 285 -17 16 -14 18 -33 18
-153 0 -102 -4 -141 -14 -156 -14 -18 -32 -19 -466 -22 -396 -2 -456 -1 -476
13 l-24 15 0 634 c0 669 -1 647 45 659 11 3 219 4 463 4 427 -2 444 -3 458
-21z"/>
<path d="M14510 4225 l0 -495 305 0 c197 0 305 4 305 10 0 6 -107 10 -300 10
l-300 0 0 235 0 235 224 0 c139 0 227 4 231 10 4 7 -73 10 -224 10 l-231 0 0
230 0 230 300 0 c193 0 300 4 300 10 0 6 -108 10 -305 10 l-305 0 0 -495z"/>
<path d="M15925 4888 c-26 -15 -234 -189 -261 -220 -23 -25 -206 -500 -236
-612 -16 -60 -18 -110 -18 -371 0 -280 1 -303 18 -318 16 -15 45 -17 194 -17
200 0 163 -13 323 118 125 103 135 116 135 163 0 35 3 39 24 39 l24 0 4 -139
c4 -192 -10 -181 224 -181 l183 0 58 47 c160 129 214 179 219 198 3 12 4 159
2 326 -4 352 8 296 -148 701 -64 166 -97 240 -115 256 -26 22 -29 22 -318 22
-198 -1 -298 -4 -312 -12z m595 -11 c39 -13 40 -16 175 -372 107 -283 105
-271 105 -616 0 -264 -2 -298 -17 -310 -12 -11 -57 -14 -190 -14 -161 0 -176
1 -189 19 -11 15 -14 55 -14 163 l0 143 -162 -2 -163 -3 -5 -150 c-6 -187 7
-176 -213 -173 -144 3 -160 5 -173 22 -21 30 -20 527 2 634 15 74 201 583 230
629 8 12 29 27 47 32 49 14 524 12 567 -2z"/>
<path d="M16080 4707 c-34 -17 -57 -62 -142 -277 l-73 -185 -3 -257 c-2 -180
0 -258 7 -258 7 0 11 51 11 155 l0 155 355 0 355 0 0 -155 c0 -97 4 -155 10
-155 14 0 13 410 -1 486 -11 58 -126 344 -176 435 -14 26 -36 52 -49 58 -35
16 -262 14 -294 -2z m291 -17 c24 -13 49 -63 132 -260 69 -167 87 -230 87
-315 l0 -55 -355 0 -355 0 0 73 c0 90 6 110 93 332 46 118 80 189 98 207 27
28 29 28 154 28 69 0 135 -5 146 -10z"/>
<path d="M16181 4516 c-7 -8 -32 -78 -55 -155 l-44 -141 145 0 c112 0 144 3
140 13 -2 6 -21 68 -42 137 -21 69 -42 133 -47 143 -11 21 -80 24 -97 3z"/>
<path d="M17110 4794 c-69 -58 -131 -113 -137 -122 -10 -12 -13 -157 -13 -647
0 -554 2 -633 16 -653 15 -21 20 -22 198 -22 l182 0 129 108 c71 59 135 118
142 132 7 14 13 63 13 116 l0 91 39 6 c28 3 58 20 103 56 l63 51 5 -263 c4
-203 8 -268 19 -280 12 -15 39 -17 200 -17 l187 0 129 108 c71 59 135 118 142
132 10 20 12 161 10 646 -2 596 -3 623 -21 643 -18 20 -29 21 -212 21 l-193 0
-139 -115 c-76 -63 -145 -126 -152 -140 -7 -14 -16 -25 -19 -25 -3 0 -37 56
-74 125 -37 68 -78 131 -90 140 -17 12 -57 15 -212 15 l-190 0 -125 -106z
m519 72 c12 -11 64 -98 117 -193 125 -227 114 -227 238 0 51 92 102 178 114
190 22 21 30 22 208 22 172 0 187 -1 200 -19 21 -29 21 -1253 0 -1282 -13 -17
-30 -19 -183 -22 -156 -3 -171 -2 -194 16 l-24 20 -5 331 -5 331 -55 -101
c-70 -130 -82 -139 -179 -139 -53 0 -83 5 -98 15 -12 9 -48 64 -80 123 l-58
107 -5 -337 c-4 -258 -8 -340 -18 -350 -19 -19 -355 -19 -374 0 -17 17 -25
1241 -8 1273 19 34 48 39 221 36 149 -2 169 -4 188 -21z"/>
<path d="M17422 4708 c-15 -15 -18 -978 -2 -978 6 0 11 172 12 483 l3 482 37
3 37 3 140 -210 c77 -115 150 -216 163 -225 30 -21 71 -20 99 3 13 10 84 110
159 222 l135 204 40 0 40 0 3 -482 c1 -311 6 -483 12 -483 16 0 13 963 -2 978
-13 13 -66 16 -92 6 -9 -3 -80 -102 -157 -220 -197 -298 -183 -297 -375 -6
-74 114 -143 213 -152 220 -20 15 -84 16 -100 0z"/>
<path d="M18841 4793 c-71 -60 -134 -118 -140 -131 -6 -13 -11 -82 -11 -161 0
-197 -15 -185 234 -189 108 -2 196 -5 196 -7 0 -3 -99 -125 -221 -272 -122
-148 -225 -278 -230 -291 -5 -13 -9 -96 -9 -185 0 -131 3 -167 16 -185 l15
-22 502 0 502 0 138 115 137 116 0 158 c0 135 -2 161 -17 172 -12 11 -71 15
-239 19 l-223 5 210 254 c116 140 217 267 225 282 11 21 14 71 14 209 0 167
-1 181 -20 200 -19 19 -33 20 -485 20 l-465 0 -129 -107z m1062 78 c15 -12 17
-38 17 -195 0 -160 -2 -184 -19 -211 -10 -16 -114 -145 -230 -285 -116 -140
-211 -258 -211 -262 0 -5 105 -8 234 -8 205 0 235 -2 247 -17 10 -12 14 -52
14 -155 0 -135 -1 -140 -24 -159 -23 -19 -42 -19 -507 -17 -379 2 -486 6 -496
16 -17 17 -24 283 -9 338 8 28 80 123 246 324 l235 285 -215 5 c-177 4 -217 8
-225 20 -15 24 -13 305 3 318 23 19 53 20 488 19 353 -2 439 -5 452 -16z"/>
<path d="M19110 4710 c0 -6 103 -10 288 -10 211 0 291 -3 300 -12 7 -7 12 -27
12 -45 0 -31 -74 -131 -563 -757 -23 -29 -30 -48 -30 -82 0 -77 -15 -74 349
-74 209 0 324 4 324 10 0 6 -113 10 -318 10 -234 0 -321 3 -330 12 -15 15 -15
53 0 81 6 12 136 182 288 377 152 195 282 365 288 377 17 30 15 75 -4 101 -15
22 -17 22 -310 22 -189 0 -294 -4 -294 -10z"/>
<path d="M6474 3158 c-54 -41 -229 -191 -241 -207 -9 -10 -13 -60 -13 -168 0
-196 -2 -193 140 -193 l100 0 0 -207 0 -208 -96 -80 c-158 -132 -144 -104
-144 -279 0 -83 4 -156 8 -162 21 -32 53 -34 462 -34 292 0 418 3 433 12 24
12 180 141 240 197 l37 35 0 151 c0 196 5 189 -134 193 l-106 4 1 206 0 207
85 70 c47 39 101 84 120 101 l34 32 0 156 c0 143 -2 158 -20 176 -19 19 -33
20 -449 20 -427 0 -428 0 -457 -22z m897 -15 c10 -12 14 -52 14 -158 0 -106
-4 -146 -14 -158 -11 -14 -33 -17 -122 -17 l-109 0 0 -310 0 -310 103 0 c147
0 142 6 142 -175 0 -134 -2 -148 -19 -161 -16 -12 -93 -14 -438 -14 -405 0
-419 1 -438 20 -18 18 -20 33 -20 153 0 180 -2 177 141 177 l109 0 0 310 0
310 -107 0 c-147 0 -143 -4 -143 169 0 107 3 141 16 159 l15 22 428 0 c386 0
430 -2 442 -17z"/>
<path d="M6640 2990 c0 -6 53 -10 140 -10 l140 0 0 -480 0 -479 -142 -4 c-79
-1 -10 -3 152 -3 162 0 231 2 153 3 l-143 4 0 479 0 480 140 0 c87 0 140 4
140 10 0 6 -103 10 -290 10 -187 0 -290 -4 -290 -10z"/>
<path d="M7820 3173 c-24 -10 -259 -213 -270 -233 -6 -12 -10 -251 -10 -645
l0 -626 25 -24 c24 -25 27 -25 194 -25 l170 0 103 83 c56 45 122 100 145 123
40 38 43 44 43 95 l0 54 20 -25 c17 -22 20 -41 20 -153 0 -122 1 -129 25 -152
24 -25 27 -25 193 -25 l169 0 39 29 c21 16 86 69 144 118 l105 89 3 640 c2
541 0 643 -12 659 -13 18 -29 20 -182 23 -92 2 -177 1 -189 -2 -13 -3 -74 -49
-136 -101 l-114 -95 -85 89 c-47 50 -95 95 -107 100 -22 11 -266 14 -293 4z
m308 -35 c17 -13 111 -115 209 -228 l178 -204 3 214 c2 188 4 217 19 228 21
15 335 17 364 2 18 -10 19 -28 19 -645 0 -563 -2 -635 -16 -649 -23 -24 -345
-24 -368 0 -13 12 -16 40 -16 143 l0 128 -157 191 -158 191 -5 -325 c-4 -274
-7 -326 -20 -334 -8 -5 -90 -10 -181 -10 -127 0 -170 3 -185 14 -18 14 -19 32
-19 644 0 518 2 632 14 645 11 14 35 17 151 17 126 0 139 -2 168 -22z"/>
<path d="M7997 2994 c-11 -12 -8 -984 3 -984 6 0 11 173 12 483 l3 484 348
-390 347 -390 0 -93 c0 -56 4 -94 10 -94 7 0 10 172 10 497 0 327 -3 494 -10
487 -6 -6 -11 -155 -12 -387 l-3 -376 -340 381 c-187 210 -345 383 -351 385
-5 2 -13 0 -17 -3z"/>
<path d="M9643 3169 c-109 -18 -155 -44 -320 -182 -144 -121 -161 -139 -193
-201 l-35 -69 0 -391 c0 -382 1 -392 22 -446 33 -79 90 -150 153 -188 102 -61
126 -65 443 -70 159 -2 299 -1 311 2 23 6 186 135 259 204 l37 36 0 151 c0
115 -3 156 -14 171 -13 18 -32 19 -254 24 -182 4 -243 8 -255 19 -15 12 -17
38 -17 187 l0 174 130 0 129 0 123 101 c68 56 131 110 141 121 15 17 17 42 17
174 0 141 -2 156 -20 174 -19 19 -33 20 -312 19 -161 -1 -316 -5 -345 -10z
m648 -26 c20 -23 25 -268 6 -303 l-13 -25 -238 -5 -238 -5 -24 -28 c-24 -28
-24 -28 -24 -278 0 -144 4 -258 10 -269 18 -33 66 -40 285 -40 167 0 215 -3
231 -14 17 -13 19 -27 19 -161 0 -134 -2 -148 -19 -161 -30 -21 -547 -20 -654
2 -95 19 -162 55 -213 112 -72 82 -74 97 -74 532 0 345 2 390 18 437 23 66 86
137 150 169 89 46 149 52 468 53 264 1 298 -1 310 -16z"/>
<path d="M9727 2989 c-108 -16 -155 -53 -177 -140 -7 -29 -10 -155 -8 -374 3
-312 4 -332 24 -370 13 -26 37 -49 65 -65 43 -25 48 -25 279 -26 l235 -1 -215
7 c-273 10 -314 22 -351 103 -17 39 -19 70 -19 377 0 307 2 338 19 377 38 83
111 102 379 103 114 0 182 4 182 10 0 12 -328 11 -413 -1z"/>
<path d="M7451 1152 c-15 -28 8 -57 38 -47 17 5 21 13 19 33 -4 34 -42 43 -57
14z"/>
<path d="M8350 1156 c-27 -33 18 -72 48 -42 13 13 14 20 6 34 -15 23 -38 26
-54 8z"/>
<path d="M8890 1156 c-27 -33 18 -72 48 -42 13 13 14 20 6 34 -15 23 -38 26
-54 8z"/>
<path d="M8457 1143 c-4 -3 -7 -72 -7 -152 0 -165 8 -191 61 -191 32 0 39 19
14 40 -12 10 -15 41 -15 161 l0 149 -23 0 c-13 0 -27 -3 -30 -7z"/>
<path d="M8690 1095 c0 -54 -1 -55 -25 -49 -41 10 -71 -3 -89 -40 -32 -68 -11
-187 36 -202 11 -3 31 -3 46 2 15 4 42 6 60 5 l32 -3 -2 169 -3 168 -27 3
c-28 3 -28 3 -28 -53z m-11 -99 c19 -23 10 -137 -12 -150 -27 -16 -47 17 -47
77 0 75 29 110 59 73z"/>
<path d="M6220 965 l0 -155 63 0 c42 0 70 5 86 16 73 52 67 243 -9 281 -14 7
-51 13 -82 13 l-58 0 0 -155z m106 107 c22 -14 34 -52 34 -107 0 -79 -21 -115
-67 -115 -22 0 -23 3 -23 108 0 60 3 112 7 115 8 9 35 9 49 -1z"/>
<path d="M7900 965 l0 -155 60 0 c64 0 113 18 124 45 17 46 -9 115 -44 115 -5
0 2 11 15 25 62 61 11 125 -100 125 l-55 0 0 -155z m108 103 c19 -19 14 -56
-9 -68 -33 -18 -49 -5 -49 40 0 35 3 40 23 40 13 0 28 -5 35 -12z m10 -130 c7
-7 12 -24 12 -38 0 -34 -17 -50 -52 -50 -27 0 -28 2 -28 50 0 48 1 50 28 50
15 0 33 -5 40 -12z"/>
<path d="M7578 1103 c-11 -3 -18 -14 -18 -29 0 -13 -4 -24 -10 -24 -5 0 -10
-9 -10 -20 0 -11 4 -20 9 -20 5 0 11 -41 13 -91 2 -76 6 -93 22 -105 37 -26
116 -10 88 18 -7 7 -20 13 -30 13 -14 0 -17 12 -20 83 -3 77 -2 82 18 82 13 0
20 7 20 20 0 13 -7 20 -20 20 -16 0 -20 7 -20 30 0 30 -6 33 -42 23z"/>
<path d="M9013 1103 c-7 -2 -13 -16 -13 -29 0 -15 -6 -24 -15 -24 -8 0 -15 -9
-15 -20 0 -11 7 -20 15 -20 12 0 15 -16 15 -85 0 -96 16 -125 68 -125 41 0 59
15 43 34 -8 9 -21 15 -30 14 -13 -3 -16 10 -19 80 -3 77 -2 82 18 82 13 0 20
7 20 20 0 13 -7 20 -20 20 -16 0 -20 7 -20 30 0 30 -14 37 -47 23z"/>
<path d="M6460 930 l0 -120 30 0 30 0 0 73 c0 74 16 117 44 117 13 0 26 21 26
41 0 16 -49 9 -59 -8 -9 -17 -10 -17 -16 0 -4 9 -18 17 -31 17 -24 0 -24 0
-24 -120z"/>
<path d="M6652 1043 c-24 -9 -42 -62 -42 -123 0 -55 3 -65 29 -91 32 -32 71
-38 116 -17 28 12 30 19 14 35 -8 8 -19 8 -40 0 -32 -13 -51 -1 -64 41 -6 21
-4 22 61 22 l67 0 -6 46 c-6 60 -38 94 -86 93 -20 0 -42 -3 -49 -6z m76 -65
c3 -26 1 -28 -32 -28 -40 0 -40 -1 -26 35 14 37 54 32 58 -7z"/>
<path d="M6841 1041 c-24 -15 1 -36 44 -36 36 0 40 -3 43 -27 3 -26 1 -28 -31
-28 -19 0 -45 -8 -57 -18 -28 -23 -31 -83 -5 -112 21 -23 67 -26 85 -5 10 12
15 12 36 -2 27 -18 36 -14 34 13 -1 11 -4 57 -6 104 -7 104 -18 120 -83 120
-25 0 -52 -4 -60 -9z m89 -150 c0 -32 -22 -56 -45 -47 -18 6 -20 47 -3 64 23
23 48 14 48 -17z"/>
<path d="M7040 930 l0 -120 25 0 c25 0 25 1 25 81 0 83 10 119 34 119 21 0 26
-23 26 -116 0 -83 0 -84 25 -84 25 0 25 1 25 88 0 87 8 112 37 112 10 0 13
-25 13 -100 l0 -100 30 0 30 0 0 98 c0 72 -4 103 -16 120 -18 26 -65 30 -85 6
-11 -14 -13 -14 -21 0 -12 21 -62 21 -82 0 -15 -14 -16 -14 -16 0 0 10 -9 16
-25 16 l-25 0 0 -120z"/>
<path d="M7450 930 l0 -120 30 0 30 0 0 120 0 120 -30 0 -30 0 0 -120z"/>
<path d="M8130 941 c0 -86 3 -113 16 -125 20 -21 53 -20 76 1 11 9 18 11 18 5
0 -7 11 -12 25 -12 l25 0 0 120 0 120 -25 0 c-25 0 -25 -1 -25 -89 0 -69 -4
-93 -16 -106 -31 -30 -39 -12 -42 93 -3 101 -3 102 -27 102 l-25 0 0 -109z"/>
<path d="M8350 930 l0 -120 25 0 25 0 0 120 0 120 -25 0 -25 0 0 -120z"/>
<path d="M8890 931 l0 -121 30 0 31 0 -3 118 -3 117 -27 3 -28 3 0 -120z"/>
<path d="M7700 855 c-18 -22 -1 -50 31 -50 20 0 24 5 24 30 0 23 -5 31 -21 33
-11 2 -27 -4 -34 -13z"/>
<path d="M9139 854 c-17 -21 0 -49 32 -49 27 0 37 28 19 50 -16 19 -34 19 -51
-1z"/>
</g>
</svg>
